<svg version="1" xmlns="http://www.w3.org/2000/svg" width="1280" height="1280" viewBox="0 0 960.000000 960.000000"><path d="M332.4 139.9c.2.3-4.6.6-10.7.7-11.6.1-31 .9-50.2 2-6 .4-12.7.7-14.7.8-2.1.1-3.8.3-3.8.6s-2.8.5-6.3.6c-5.5.1-13.3.6-27.7 1.9-2.5.3-7.4.7-11 1-3.6.3-7.8.7-9.5.9-3.6.4-15 1.8-18.5 2.1-1.4.2-5.2.6-8.5 1s-7.1.9-8.5 1c-3.1.3-10.6 1.4-14 2-1.4.2-4.5.7-7 1-2.5.3-7 1-10 1.5s-7.1 1.2-9 1.5c-1.9.3-4.8.8-6.5 1.2-1.6.3-3.9.7-5 .9-1.1.2-2.9.5-4 .7-1.1.3-4 .8-6.5 1.3-2.5.4-4.7.8-5 .9-.3.1-1.8.5-3.5.9-1.6.4-4.8 1.2-7 1.7s-5.1 1.2-6.5 1.5c-1.4.3-3.5.7-4.8 1-1.3.2-4.2 1.1-6.5 1.8-4.1 1.4-9.6 2.9-10.9 3-.3.1-1 .4-1.4.8-.4.5-1.4.8-2.3.8-2.7 0-18.1 6.7-25 10.9-13.1 7.8-22.4 19.6-24.6 30.9-.2.9-.4 1.7-.5 1.7-.1 0-.4 2.8-.7 6.2-.9 12.8 6.1 18.7 16.8 14.2 2.8-1.1 4.9-4.6 5.5-9.2.2-1.5.6-4 .8-5.7.5-3.6 2.8-9 3.8-9 .5 0 .8-.5.8-1 0-3.4 14-11.8 27.8-16.6 11.6-4.2 39.7-11.3 50.7-13 1.1-.2 3.1-.6 4.5-.9 1.4-.3 3.6-.8 5-1 1.4-.2 3.9-.7 5.5-1 1.7-.4 4.6-.8 6.5-1 1.9-.2 3.5-.4 3.5-.5 0-.3 4.2-1 9-1.5 2.8-.3 5.7-.7 6.5-1 .8-.2 3.8-.7 6.5-1 2.8-.3 5.9-.7 7-.9 2.7-.5 10.9-1.6 17-2.2 2.8-.3 6.6-.7 8.5-1 1.9-.2 6-.6 9-.9 3-.3 7.3-.7 9.5-1 9.9-1 20.4-1.8 25.2-1.9 2.9-.1 5.3-.3 5.3-.6s1.9-.5 4.3-.6c2.3 0 8.9-.4 14.7-.9 5.8-.4 13-.9 16-1 3-.2 10.5-.6 16.5-1 6.1-.4 11.6-.6 12.3-.6 2.6.2 3.9.2 10.2-.3 30.2-2.2 141.1-2.2 191-.1 19.1.9 32.7 1.5 39.5 2 3.9.3 10.6.7 15 1 4.4.3 10.7.7 14 1 3.3.3 9.4.7 13.5 1 4.1.2 9.3.7 11.5.9 2.2.3 7.2.8 11 1.2 9.2.9 11.1 1 17 1.7 2.8.4 7.5.9 10.5 1.2 3 .4 6.6.8 8 1 1.4.2 5 .7 8 1 3 .3 6.2.7 7 1 .8.2 3.8.6 6.5 1 4.3.5 13.8 2 25.3 3.9 1.7.3 4.7.8 6.5 1.2 1.7.3 7.7 1.4 13.2 2.6 5.5 1.1 10.7 2.2 11.5 2.3.8.2 1.5.4 1.5.5 0 .2 1.6.5 5.8 1.3 1.5.3 6.9 1.8 12 3.3 5.1 1.4 9.9 2.8 10.7 2.9.8.2 1.6.4 1.8.5.1.2.7.4 1.2.5.6.1 1.2.4 1.5.5.3.1.8.3 1.3.5 6.3 1.8 20.8 9.5 24.6 13.2 4.7 4.6 6.6 8.2 7.3 14.1.9 7.7 2.6 11.5 6.1 13.9 5.4 3.6 13.4 1.5 16-4.3 3.2-7-.2-23.3-6.7-32.4-7.5-10.3-23-20.6-38.2-25.4-3-1-6.1-2-6.9-2.3-.8-.3-1.9-.7-2.5-.9-.5-.1-4.1-1.2-8-2.3-3.8-1.2-7.9-2.3-9-2.6-1.1-.2-3-.6-4.3-.9-1.3-.3-3.1-.7-4-1-.9-.3-3.2-.8-5.1-1.1-1.9-.3-3.7-.7-4-.9-.3-.2-2.2-.7-4.1-1-1.9-.3-8-1.4-13.5-2.5s-13.4-2.5-17.5-3.1c-8.1-1.3-10.3-1.6-13.7-2.4-1.2-.2-4.8-.7-8-1.1-3.2-.3-6.7-.8-7.8-1-1.1-.3-4.5-.7-7.5-1-3-.3-6.6-.7-8-.9-3.2-.6-12-1.6-19-2.2-3-.3-7.3-.7-9.5-1-2.2-.2-6.7-.6-10-.9-3.3-.2-8-.7-10.5-1-5-.5-17.5-1.5-26-2-3-.2-8.9-.6-13-.9-15.7-1.1-38.5-2.3-62-3.3-19.1-.8-159-1.2-158.6-.4z"/><path d="M349.5 185.8c-.2.2-7.7.6-16.7.8-32.6.8-65.3 2.4-97.8 5-4.1.3-9.5.7-12 .9-8.5.6-19.5 1.6-23 2-1.9.2-6.4.7-10 1.1-3.6.3-7.2.7-8 .9-.8.2-4.4.6-8 .9-3.6.4-7.6.9-9 1.1-1.4.2-4.5.7-7 1-2.5.3-5.6.8-7 1-1.4.2-4.5.7-7 1-2.5.4-6.3 1-8.5 1.5s-6 1.1-8.5 1.5c-2.5.3-7.3 1.3-10.8 2-3.4.8-7.5 1.7-9.1 2-7.2 1.2-27.3 7.6-33.5 10.6-3.8 1.8-8.4 4.8-10.2 6.6-5.9 5.8-3.1 12.2 7.5 17.6 4.4 2.3 19.1 7.8 19.1 7.2 0-.2 1.6.3 3.5 1.1s3.5 1.2 3.5.9c0-.3 1.7.1 3.8.9 2 .8 8.4 2.3 14.2 3.5 17 3.3 16 3.2 29.5 5.2 3.9.6 8.1 1.2 9.5 1.5 1.4.2 4.5.7 7 1 2.5.3 5.4.7 6.5.9 1.1.1 4.7.5 8 .9s7.4.9 9 1.1c1.7.2 6.2.7 10 1 3.9.4 8.4.9 10 1.1 1.7.2 6.6.6 11 .9 4.4.4 10 .9 12.5 1.1 2.5.3 7.2.7 10.5.9 10.2.6 23.7 1.5 31 2 6.4.4 21.7 1.1 43.5 2 51.1 2.1 138.3 2.1 189 0 13.8-.6 34.8-1.6 41-2 3.6-.2 10.8-.7 16-1 17.5-1.1 32.8-2.3 39.9-3 2.9-.3 7.7-.8 10.5-1 5.5-.5 12.6-1.2 19.1-2 2.2-.2 6.3-.7 9-1 2.8-.2 6.6-.7 8.5-1 1.9-.3 5.3-.8 7.5-1.1 2.2-.3 5.1-.7 6.5-.9 1.4-.3 5.7-.9 9.5-1.5 3.9-.5 7.9-1.1 9-1.4 1.1-.2 4-.7 6.5-1.1 11.5-1.9 30.6-6.4 41-9.7 16.4-5.2 25.3-10.7 27-16.6.8-2.9.5-3.7-2.2-6.8-3.1-3.5-13.1-8.8-22.2-11.9-5.4-1.7-22.2-6.2-26.4-7-1.4-.2-4.8-.9-7.6-1.4-7.8-1.6-10.8-2.2-14.1-2.7-1.6-.3-5.2-.9-8-1.4-2.7-.5-7-1.2-9.5-1.5-2.5-.2-5.5-.7-6.7-.9-1.2-.3-4.8-.7-8-1.1-3.2-.3-7.1-.8-8.8-1-9.1-1.2-13.5-1.7-18-2.1-2.7-.2-7-.6-9.5-.9-6.1-.8-12.2-1.3-20-1.9-3.6-.3-9.4-.8-13-1.1-9.8-.8-19.4-1.4-30-2-23.9-1.3-28.1-1.5-38-2-36.2-1.5-160.3-2.8-161.5-1.7zM9.5 259.4c-3.7 1.6-8.2 6.8-9.1 10.2-.6 2.4.2 48.2 1 58.9.2 2.7.7 9.3 1.1 14.5.3 5.2.8 11.1 1 13 .2 1.9.7 6.2 1 9.5.3 3.3.8 7.6 1 9.5.3 1.9.7 5.7 1 8.5.6 5.4 1.1 8.9 1.9 14.5.3 1.9 1.2 8.4 2.1 14.5.9 6 2 13.2 2.5 16 .5 2.7 1.2 6.6 1.5 8.5.5 2.9 2.4 12.4 4.1 20.5.2 1.1.6 3.2.9 4.7 1.3 6.8 4.9 11.1 10.4 12.5 1.4.3 3.1.9 3.6 1.4.6.4 1.3.7 1.8.7.4 0 4.5 1.3 9 2.8 4.5 1.5 8.7 2.9 9.2 3 5.6 1.2 6.5 1.1 7.8-.4 1.2-1.4 1.3-2.6.6-6.2-1.5-7.2-3.1-15.7-3.4-17.5-.2-1.7-1.6-10.8-2.2-14-2-11.5-2.8-23.1-2.8-40.5 0-18.9.8-22.4 4.7-21.8 2.5.4 3.9 4.5 8.3 24.3.3 1.1.8 3.3 1.2 5 .4 1.6.7 3.2.8 3.5 0 .3.7 2.8 1.4 5.6.7 2.9 1.4 6 1.6 7 .2 1.1.4 1.9.5 1.9.1 0 .3.8.5 1.9.8 4.1 2.8 12.4 4.1 16.6 6 20.3 7.3 23.7 13.3 36.2 3.4 7 7.1 10 13.6 11.2 7.9 1.4 9.9 1.8 16.3 3.1 8.5 1.8 10.9.6 10.4-5 0-.6-.8-4.6-1.6-8.9-.9-4.4-1.8-9.1-2-10.5-.3-1.4-.7-4.5-1.1-6.9-2-12.4-2.7-21.6-2.7-34.4-.1-13.7.8-25.9 2.2-30.7.5-1.7.8-3.4.8-3.8-.2-1.7 3.1-2.7 5.4-1.6 1.7.8 2.9 2.9 4.5 7.9 2.6 8 5.8 20.4 6.7 25.4.3 1.9.8 4.6 1.1 6 1 4.6 1.4 7.5 2 11.7.3 2.4.7 6.2 1.1 8.5 1.2 9.6 1.9 37.2.9 38.8-.2.4 0 2.3.6 4.2 1.1 4 3.4 5.3 11.4 6.2 2.8.4 6.1.8 7.5 1 2.8.5 9.4 1.4 15.9 2.2 2.4.3 6 .7 8 1 8.4 1 9.4 1 11.6-.8 2.6-2 2.6-2.8.1-15.8-.8-4.1-1.8-9.3-2.1-11.5-.3-2.2-.7-5.1-1-6.5-.2-1.4-.6-5.2-1-8.5-.3-3.3-.8-7.1-1-8.5-.5-3.2-1.6-20.1-2.1-30.5-1-22.1-.4-75 1.1-94.5 1.1-14.2.7-25.7-.8-28.1-.9-1.3-1.6-2.8-1.6-3.2 0-2.9-9.4-10.2-14.4-11.1-1.2-.3-2.2-.5-2.2-.6 0-.1-2.2-.3-5-.6-2.7-.2-6.8-.7-9-1-2.2-.3-5.3-.7-7-.9-4.6-.5-12.7-1.5-16-2.1-7.4-1.1-14-1.1-15.8-.1-4.6 2.6-8.2 8-9.2 13.7-.1.3-1.6 5.2-3.5 11-1.8 5.8-3.5 10.9-3.6 11.5-.1.5-2.2 7.2-4.6 14.9-3.3 10.7-4.8 14.1-6.4 14.8-3.9 1.8-5.9-.4-7.3-7.9-.7-3.7-1.7-8.4-2.1-10.3-1.8-7.1-3.9-16.6-4.4-19.5-.3-1.7-.8-4.1-1.2-5.5-.7-2.9-1.4-5.9-4.2-18.8-1.2-5.1-3.1-10.6-4.2-12.2-2.6-3.7-8-6.3-15.7-7.6-4-.7-19.3-4.9-30.7-8.4-10.9-3.3-13.6-3.6-18.1-1.6zM763.6 267.7c-.2.2-2.3.7-4.7 1.2-2.4.6-7.5 1.7-11.4 2.6-3.8.9-7.8 1.8-8.8 2-1 .2-2.6.6-3.5.9-.9.3-3.3.7-5.3 1-2 .3-4.8 1-6.3 1.5-1.4.6-2.6.9-2.6.6 0-.7-12.5 3.2-16.1 5-4.6 2.4-12.8 8.6-16 12.1-9 10-16.5 28.3-22.3 55-1.3 6-2.4 11.6-2.4 12.4-.1.8-.4 3.1-.7 5-3 18.7-2.6 55.3.8 71.5.4 1.6.9 4.6 1.2 6.5 1.5 10.9 4.8 22.2 8.1 27.7 4.1 7.1 11.6 14.1 18.7 17.3 12 5.6 19.2 5.7 39.7.5 20-5.1 50.1-14.4 53.8-16.7 3.5-2.1 6-5.3 6.7-8.4.9-3.8 3.4-15.2 4-18 1.2-6.4 5.5-31.1 6-34.4 1.6-11.7 1.6-13.9.5-15.9-1.2-2.3-2.8-2.4-10-.6-1.4.3-3.8.7-5.5.9-1.6.2-6.1 1.1-10 2-7.9 1.8-11.3 2.4-13.7 2.5-.9.1-2.9 1.1-4.3 2.4-2.5 2.1-2.9 3.3-6.1 17.6-1 4.8-5.4 13-8.6 16.4-4.3 4.4-7.2 5.3-10.2 3.4-2.4-1.6-7.1-9.8-8.1-13.9-1.9-8.8-3.3-16.2-4.2-22.3-.8-5.9-.9-28.1 0-35 .8-7.3 2.3-16 2.7-16 .1 0 .3-1.1.6-2.4 1-5.4 3.8-13.9 6.2-18.9 5.9-12.2 19.8-15.2 25.4-5.5 2.7 4.5 3.1 6.6 3.4 18.1.4 13.6.9 14.9 5.5 14.4 5.3-.6 10.7-1.3 11.9-1.7.8-.2 2.9-.7 4.5-1 1.7-.2 7.4-1.6 12.9-2.9 12.5-3 14.2-4.6 15.1-13.6 1.9-21.7 2.1-34 .5-40-4.4-16.9-17.4-29.1-34.5-32.5-3.1-.7-12.5-1.2-12.9-.8zM836.4 285.3c-3.7 1.6-4.6 4.5-4.9 17.1-.2 6.6-.7 17.9-1.1 25.1-1.2 20.8-1.2 20.8 8.1 18.2.6-.2 1.9-.8 3.1-1.5 6.7-3.6 19.5-5.4 28.5-3.9 5.8 1 18.9 6.4 18.9 7.8 0 .4.8 1 1.9 1.4 3.1 1 10.1 8.7 13.1 14.5 3.2 6.4 6.5 17.2 7.6 25 1 6.9 1 34.7.1 42.1-3.7 28.3-14.2 49.3-35.7 71-20.2 20.4-37 30.3-60 35.4-10.4 2.3-10.9 2.4-16 3.1-6.7.9-10.5 5.3-12.6 14.9-.1.5-2 6-4.3 12.1s-4.1 11.6-4.1 12.2c0 .6-.3 1.2-.7 1.4-1.1.4-4.5 9.7-5 13.3-.5 4.3.9 5.9 5.4 5.9 4.2 0 12-1.1 17.3-2.4 4-1 8.6-2 11.5-2.4 1.1-.2 2-.4 2-.5 0-.3 1.7-.7 5.8-1.6 2.7-.5 10.6-3 13.7-4.2.8-.3 2-.7 2.5-.8 5.8-1.5 37.2-16.1 39.5-18.5.3-.3 3.3-2.3 6.7-4.5 3.5-2.2 6.3-4.3 6.3-4.8 0-.4.7-.7 1.5-.7.7 0 1.8-.6 2.2-1.3.4-.8 1.5-1.8 2.4-2.3 6.3-3.6 25.6-22.6 33.9-33.4 6.9-9.1 14-20 16.6-25.5 1-2.2 2.3-4.3 2.8-4.7.6-.4.7-.8.3-.8-.5 0-.2-1.2.7-2.8 6.5-12.2 12.3-33.1 14.4-52.2 1.4-12.7.4-60.2-1.3-63-.2-.4-.6-2.8-1-5.4-.3-2.7-.7-5.1-.9-5.5-.2-.3-.7-2.2-1-4.2-.8-5.4-5.4-19.6-8.7-26.8-5.5-12.1-15.5-24.8-24.1-30.7-2.4-1.6-4.5-3.1-4.8-3.4-1-1.2-12.4-6.3-15.9-7.2-2-.5-5.4-1.4-7.6-1.9-6-1.6-7.5-1.8-13.5-2.4-18.1-1.8-40.9-2.5-43.6-1.2zM647.8 288.5c-.2.2-3.2.6-6.8 1-3.6.4-7.8.8-9.5 1-1.6.2-6.1.6-10 1-3.8.3-8.6.8-10.5 1-1.9.2-7.1.7-11.5 1.1-4.4.3-9.6.8-11.5.9-1.9.2-4.7.4-6.1.4-1.4.1-3.6 1.1-4.8 2.2-2.7 2.5-2.6 3.5 1.3 19.9.8 3.6 1.8 8.1 2.1 10 .3 1.9.7 4.6 1 6 .8 4.8 1.7 10.5 2 14 .2 1.9.6 5.7.9 8.5 1.7 13 2.9 64.4 1.7 66.9-.2.5-.5 3.2-.7 6-.7 12.2-1.7 21.7-3 29.6-.2 1.4-.7 4.1-1 6-.3 1.9-.7 4.6-1 6-.2 1.4-.7 4.1-1 6-.3 1.9-.8 4.4-1.2 5.5-.3 1.1-.6 2.2-.7 2.5-1.1 5.2-2.1 8.9-4.2 15.9-2.9 9.8-2.5 12.5 1.8 14 1.7.6 3.4.9 3.8.7.3-.2 4.4-.7 9.1-1.1 8.7-.7 10.7-.9 19.8-1.9 2.8-.3 7.4-.8 10.1-1.1 2.6-.3 6.6-.7 8.7-1 2.1-.2 6.2-.7 9-1 9.9-1.1 15.5-2.4 17.2-4.1 1.5-1.5 1.9-5.7.8-9.1-1.2-3.8-2-7.9-4-19.8-.8-5-1.4-9.7-1.4-10.5 0-.8-.3-2.4-.5-3.5-2.1-8.8-2.9-61.7-1.3-83 .5-6.1 1-12.8 1.1-15 .2-2.2.4-4 .5-4 .1 0 .3-1.6.5-3.5.1-1.9.6-5.8 1-8.5.4-2.8.8-6.4 1-8 .2-1.7.6-4.4.9-6 .4-1.7.9-4.5 1.2-6.4.3-1.8.8-4.3 1-5.5.2-1.1.7-3.7 1-5.6.3-1.9.9-4.9 1.4-6.5 1-3.3 1.8-7.1 2.7-12.5.7-4.9-2.1-8.3-7-8.5-2-.1-3.8-.1-3.9 0zM270.2 298.6c-3.2 1.1-12.8 10.1-18.9 17.8-2.4 2.9-12.3 18.4-12.3 19.2 0 .4-.7 1.5-1.6 2.5-.8.9-1.7 2.3-1.8 3.1-.2.7-1.5 4-3.1 7.3-3.1 6.7-9.1 24.6-9.8 29.3-.3 1.7-.7 3.5-1 3.9-.3.5-.8 2.7-1 4.8-.3 2.2-.8 5.1-1.1 6.5-3.4 13.6-3.9 51.2-1.1 71 2.1 14.7 7.9 37.9 11.2 44.8 2.7 5.7 3.5 5.9 37 7.7 12.7.7 13.2.6 14.3-1.4 1-1.9.7-8.1-.5-10.1-.2-.3-.7-2-.9-3.6-.3-1.6-.8-4-1.2-5.4-.9-4-1.6-8.1-3.8-21.5-1.2-7.9-1.2-9.3.1-11.3 1.4-2.3 1.8-2.4 10.1-1.8 24.6 1.7 25.2 1.8 26.7 3.9 1.4 2 1.1 19.9-.9 44.4-.3 4.3-.1 5.5 1.8 7.2 2 1.9 3.7 2 29.2 2.5 32.6.6 32 .8 31-8.8-.3-3.3-.7-7.2-1-8.6-.7-4.2-2.5-23.7-3.2-35-1.5-26.5-1.8-42.3-1.9-81 0-38.7.4-51.9 2-73.4.5-6.5-1.5-11.6-4.5-11.6-.9 0-2-.3-2.3-.6-.3-.4-9.8-.8-20.9-.9-17.8-.3-45.2-1.1-61.6-1.9-2.9-.1-6.9.3-9 1zm37.3 46.8c1.7 2.5 2.3 10.5 4 49.5l.5 11.3-3.5 3.5-3.6 3.6-9.4-.7c-14.1-1-16-1.6-18.9-6-2.2-3.4-2-6.8.9-17.7 1.4-5.2 2.7-10.2 3-11.1.2-1 1-3.2 1.8-5 .8-1.8 2.7-6 4.2-9.3 3.9-9 10.6-19.6 12.8-20.4 3-1.1 6.7-.1 8.2 2.3zM510.7 298.6c-.2.3-15.3.6-33.6.9-39.8.5-43.5 1.2-56.2 9.7-7.6 5-17.3 16.3-16.8 19.4 0 .4-.4 1-.9 1.3-1.7 1.1-9.5 24.5-10.7 32.6-.2 1.1-.8 4.4-1.4 7.2-4 20.1-4.4 61.8-.7 81.3.5 2.8 1.6 9.5 2 12.5.2 1.1.6 3.3 1 5 .3 1.6.8 4 1 5.2.9 4.5 4.8 18 6.9 23.7 2.8 7.4 9.8 14.5 18.6 18.9 6.3 3.1 6.7 3.1 20 3.1 20-.1 69.7-1.4 76.6-2 10.1-.8 21.1-7.3 28-16.5 1.5-2 4.5-9 5-11.7.2-1.2.6-2.6.9-3 .3-.5.7-1.9 1-3.3.3-1.3 1.4-5.8 2.5-9.9 2.1-7.7 3-11.9 3.6-15.7.2-1.2.6-3.4.9-5 .3-1.5.8-4.3 1.1-6.1.3-1.7.7-4.4.9-6 1.3-7.9 1.9-18.2 2-31.2 0-21.4-.4-24.8-3.1-28l-2.3-2.7-14.7.3c-8.2.2-25.9.6-39.5.8-14.6.3-25.5.9-26.6 1.5-1.9 1-4.2 6.6-7.2 17.6-1.5 5.6-2.4 16.3-2.4 28.4.1 9.5.3 10.6 2.3 12.2 2.2 1.8 6.3 1.8 6.9-.1.2-.5.8-1 1.4-1 .5 0 3.5-2 6.6-4.3 3.1-2.4 6.8-5 8.2-5.7 1.4-.7 2.8-1.8 3.2-2.3 1.1-1.8 6.9-.9 9.5 1.5 2.8 2.6 2.8 4.1-.2 18.8-.2 1.4-.7 4.1-1 6-1.4 8.3-1.7 9.5-2.7 10.8-3.2 3.8-10.7 5.1-33.7 5.6-12.8.2-13.9-.7-16.6-15.2-.2-1.3-.7-3.1-.9-4-.6-1.9-1.2-5.4-2.2-14.7-.9-7.3-.8-28.9 0-33 .4-1.7.9-4.4 1.1-6 .7-5.2 3.1-14.7 4.4-17.4.5-.9 2.5-5.1 4.6-9.3 2.1-4.2 5-8.8 6.5-10.3 3.1-3-3.1-2.6 82.8-4.9 8.1-.2 9.7-1.8 7.7-7.7-.8-2.2-1.4-4.2-1.4-4.4.1-1.1-5.4-18.7-7.1-23-.5-1.1-1.9-4.8-3.3-8.3-1.3-3.5-3.4-7.5-4.6-9-2.1-2.7-2.4-2.7-14.6-2.8-6.8-.1-12.6 0-12.8.2zM769 502.7c-2.5.8-5.2 1.6-6 1.8-.8.3-4.9 1.4-9 2.6-7.5 2.1-13.9 3.7-17.3 4.4-1 .2-2.7.7-3.7 1-1 .3-2.8.8-3.9 1-1.2.3-2.9.7-3.8 1-2.4.6-40.9 8.2-45.3 8.9-1.9.3-4.6.8-6 1-1.4.3-4.5.7-7 1-2.5.3-5.6.8-7 1-2.4.4-9.2 1.4-15.5 2.2-1.6.2-4.3.6-6 .8-1.6.3-5.7.7-9 1.1-6.1.7-8.1 1-12.5 1.9-1.4.3-3.8.9-5.5 1.2-4.4.9-14.7 5.7-20.2 9.5-9.7 6.5-20.7 19.4-25.2 29.4-2.3 5.1-6.6 19.2-6.3 20.6.1.4-1.2 7.3-2.9 15.5-1.6 8.2-3.1 15.8-3.3 16.9-.2 1.1-.7 3.5-1 5.2-.3 1.8-.8 4.5-1.1 6-.3 1.6-.7 3.7-.9 4.8-.2 1.1-1.8 9.2-3.6 18-3.7 19-3.3 17-6.5 32-3.3 15.9-3.6 19.1-2.4 24.5 2.1 9.9 8.3 18.1 17.3 22.8 4.4 2.3 6.4 2.7 13.6 2.7 4.7 0 10.3-.5 12.5-1.2 2.2-.7 10.2-2.8 17.7-4.8 15-3.9 38.1-11 45.8-14.2.8-.3 2-.7 2.5-.9 5.3-1.4 25.2-10.3 31.5-14 20.8-12.4 31.7-26 52.6-65.9 17.2-32.7 18.4-37.6 11.2-45.6-2.2-2.5-4.2-3.5-8.8-4.4-1.8-.3-19.8 2.2-28 4-1.4.3-4.1.8-6 1-1.9.3-4.6.7-6 1-1.4.2-3.8.6-5.5.9-1.6.2-4.3.7-6 1-1.6.3-4.6.8-6.5 1.1-1.9.3-4.2.8-5 1-.8.2-3.5.7-6 1-2.5.3-5.2.8-6 1-.8.2-3.1.6-5.1.9-5 .8-9 2.4-11.5 4.7-4.5 4.2-11.8 23-13 33.5-.7 5.4 1.1 6.1 7.9 3.2 5.4-2.3 8.4-4 22.6-12.7 13.2-8 19.8-8.8 19.9-2.4 0 8.3-20.9 39.2-26.6 39.3-.7 0-2 .4-3 .9-2.2 1.3-11.8 3.7-27 6.9-16.4 3.5-15.6 4.3-15.5-17 .1-14.9.7-22.9 1.8-24.8.2-.4.7-2.1 1-3.9 2.3-13 21.2-44.3 29.4-48.5 2.8-1.5 4.1-1.8 12.6-3.2 4.4-.7 6.7-1.1 7.5-1.4.3-.1.8-.2 1.3-.1.4.1 4-.6 8-1.4 3.9-.8 8.8-1.7 10.7-1.9 1.9-.3 4.6-.7 6-1 4.8-1.1 7.5-1.6 11-2.1 1.9-.3 5.8-1 8.5-1.5 2.8-.6 6.1-1.3 7.5-1.5 1.4-.3 3.9-.7 5.5-1 1.7-.3 5.3-1 8-1.5 2.8-.5 6.2-1.1 7.6-1.4 10-1.6 24.8-4.9 26.9-5.9 6.5-3.1 9.5-8.7 15.5-29.7.7-2.5 2.2-7.8 3.4-11.7 2.6-8.8 2.6-10.5.4-13.1-2.5-2.7-6-3.2-11.3-1.5zM43.1 506.6c-4.1 1.7-5.8 3.5-7.7 7.9-1.6 3.9-1.3 9 .8 12.8.6 1.2 1.1 2.3 1 2.4-.1.2-.1.5-.1.8.1.3.2.8.3 1.2.7 2.9 3.8 13.2 4.5 14.8.5 1.1 1.9 4.9 3.1 8.5 3.7 10.8 12 32.6 15.5 40.5.7 1.6 3.2 7.5 5.6 13 8.8 20.2 26.4 53.2 36.7 69 10.1 15.4 31.8 33.5 40.2 33.5 2.6 0 2.5-1.6-.1-9.9-2-6-2.3-7.1-2.8-9.3-.1-.4-.8-2.6-1.6-4.8-.8-2.2-1.4-4.2-1.5-4.5 0-.3 0-.6-.1-.8-.2-.8-.9-3.6-1.4-6.2-.3-1.7-1.2-5.5-2-8.5s-1.6-7.3-2-9.5c-.3-2.3-.7-5-.9-6-2.7-15.2-3.7-37.5-1.6-37.5 2.6.1 6.9 7.5 10.4 18 1.6 4.7 3.3 9.6 3.9 11 .6 1.4 1.1 2.7 1.2 3 .3.9 1.6 4.2 5.3 13.5 1.9 4.9 6.3 15 9.8 22.3 3.5 7.3 6.3 13.6 6.4 14 .1.4.7 1.4 1.4 2.2.7.8 2.8 4.2 4.6 7.5 4.7 8.4 10.9 17.6 13.7 20.3 5.2 4.9 20.4 10.1 25.6 8.8 4.7-1.1 5.4-3.8 6-20.6.4-8.5.8-16.6 1.1-17.9.3-1.3.8-4.9 1.2-8 .3-3.1.8-6.5 1-7.6.2-1.1.7-3.4 1-5 .3-1.7 1-5 1.5-7.5.6-2.5 1.3-5.6 1.5-7 .3-1.4.7-3.3 1-4.2.3-1 .8-3 1-4.5 1.1-6 9.6-29.7 12.1-33.6 5.2-8.4 7.7-7.3 9 4 1.4 12 .3 42.5-2.1 57.3-.3 1.9-.7 5.1-1 7-.5 3.1-2.8 15.8-4 21.5-.2 1.1-.9 4-1.5 6.5-.7 2.5-1.4 5.6-1.7 7-.3 1.4-1.2 4.7-2 7.5-3.1 10.8-.4 13.5 17.1 17.1 1.1.2 3.1.6 4.5.9 8.4 1.7 25 4.5 25.7 4.4.4-.1 1 0 1.3.1 1.1.4 4.7 1 9 1.4 2.5.3 4.5.5 4.5.6 0 .1 1.8.3 4 .6 2.2.2 5.2.6 6.6.8 6.3.9 11.1-4 9.5-9.7-1.9-6.6-5.9-22.6-6.3-25.2-.3-1.7-.9-3.7-1.4-4.6-.4-.9-.6-1.8-.4-2.1.3-.2-.4-5-1.5-10.6s-1.9-10.6-1.9-11c.1-.4 0-.9-.1-1.2-.3-.9-.8-4.3-1.4-10-.3-3-.8-7.1-1.1-9-.3-1.9-.7-6.9-1-11-.3-4.1-.7-9.5-1-12-1.5-13.9-2.1-55.2-1.2-84.3.3-10.2.1-12.4-1.7-16.2-2.8-6.1-7.9-8.2-21.2-9-5.6-.4-12.6-.8-15.5-1-3-.2-9-.7-13.4-1-4.4-.3-10.7-.8-14-1.1-27.3-2.6-30.1-2.7-33.4-.9-1.7.8-3.8 2.7-4.7 4.1-1.7 2.6-2.1 4.1-3 13.4-.7 7.6-1.2 11.5-1.4 11.5 0 0-.3 3-.5 6.6-.2 3.7-.6 8.4-.9 10.5-.7 5.7-1.6 13.2-2.1 18.9-.6 6.4-3.2 9.9-7.3 10-4.1.1-6.1-2.8-8.8-12.4-1.2-4.2-3.4-11.4-4.8-16.1-1.5-4.7-2.9-9.6-3.2-11-.3-1.4-1.8-7-3.5-12.5-5.3-17.6-5.7-18.9-6.3-21.9-1.8-7.5-6.4-10.4-19.6-12.1-3.9-.5-18.1-3.1-22-4-1.4-.3-4.1-.8-6-1.1-1.9-.3-5.1-.9-7-1.4-1.9-.5-4.6-1.1-6-1.4-4.1-.8-6.3-1.3-11-2.6-2.5-.7-5.2-1.3-6-1.5-4.1-.8-8.2-1.9-15.5-4-10.6-3.1-14.6-3.5-18.4-1.9zM521.7 539.6c-.4.4-28.8 1.4-51.1 1.8-16.2.3-17 .4-18.8 2.6-2.2 2.8-2.2 3.7.1 10.8 3.1 9.6 6.8 25.9 8.6 37.7.3 1.6.7 4 .9 5.3.3 1.3.8 5 1.1 8.3.4 3.3.9 7 1.2 8.2.2 1.2.6 10.5.8 20.7.3 16.7.1 19.4-2 27.5-5.3 20.7-14.4 33.2-26.5 36.5-4.9 1.4-5 1.4-9.8.6-6.8-1-15.1-8.4-20-17.7-2.6-5-5.1-11.1-5.3-13.1 0-.4-.5-2.2-1-4-1.8-5.9-2-8.2-2.2-21.3-.1-11.4.2-16.5 1.7-26.5.2-1.4.7-5 1.1-8 .4-3 .9-5.8 1.1-6.2.3-.4.7-2.6 1-5 .6-4.5 7.9-34.2 9.1-36.8.3-.8.7-1.7.8-2 0-.3.8-2.8 1.7-5.5 2.1-6.4 2-8.4-.6-10-2.6-1.7-77.4-2.8-81.9-1.2-1.5.5-3.2 1.9-3.9 3-2.7 5.2-3 102.8-.4 122.7.8 5.3 3.7 20.6 4.3 22 .3.8.8 2.4.9 3.5.2 1.1 1.3 4.7 2.5 8 9.6 28 26.6 48.1 47.1 55.7 5.9 2.1 7.8 2.3 27.3 2.2 29.4 0 47.2-1 52.3-2.9 12.9-4.6 23.9-12.8 35.8-26.6 2.8-3.3 11.9-18.6 14-23.5.9-2.1 2.1-5 2.7-6.4.6-1.4 1.1-2.7 1.2-3 .1-.3.4-1.2.8-2 .9-2.3 3.8-11.3 4.3-13.3.7-3.2 1.3-5.2 2.3-8.5.5-1.7.7-3.2.4-3.2-.3 0 0-.7.7-1.5s1-1.5.7-1.5c-.3 0 0-1.9.5-4.3.5-2.3 1.2-5.3 1.4-6.7.2-1.4.7-3.9 1.1-5.5.4-1.7.6-3.3.5-3.6-.1-.4.3-3.3.8-6.5 1.6-10.1 2.1-15.5 3.6-32.6.8-9.8 2.2-36 2.9-54.3.2-6.9-1.5-10.8-5.6-12.5-2.8-1.2-7.6-2-8.2-1.4z"/><path d="M164.9 742.1c-1.9 1.9-2.1 3-1.7 10.3 1.1 19.5 11.6 28.7 45.8 40 19.8 6.5 53.8 15.4 65.1 17 2 .3 4.2.8 5 1 1.3.5 3.5.8 12.7 2.1 2 .3 4.8.8 6.2 1.1 1.4.4 4.3.8 6.5 1 4.8.5 8.8 1 13.5 1.8 1.9.3 6.4.8 10 1.1 6.2.4 13.2 1 24.5 2.1 9.1.9 84.9 1.2 86.5.4.9-.5 2.3-.4 3.3.1.9.6 1.7.6 1.7.2 0-.4 2.6-.8 5.8-.9 7-.1 25.3-1.3 28.2-1.9 1.2-.2 6-.7 10.7-1 4.7-.3 8.8-.7 9.2-.9.3-.2 3.5-.7 7.1-1.1 3.6-.4 7.4-.9 8.5-1.1 1.1-.2 3.9-.6 6.3-.9 2.4-.3 6.2-.9 8.5-1.5 2.3-.5 6.5-1.2 9.2-1.6 2.8-.3 5.3-.8 5.6-1 .3-.2 2.1-.6 4-.9 9.9-1.7 30.3-6.8 43.9-11 4.7-1.4 10.5-3.2 13-3.9 2.5-.8 6.8-2.3 9.6-3.4 2.9-1.2 5.5-1.8 5.8-1.5.3.4.6.1.6-.5 0-.7.6-1.2 1.3-1.2 3.3 0 17.6-8.9 21.1-13 4.6-5.7 7-12.3 7.4-21.2.4-8.4.4-8.7-2.2-10.3-2.6-1.7-3-1.6-15.9 2.5-7.2 2.4-13.2 4.2-13.2 4.1 0-.1-1.3.3-3 .9-3.4 1.4-3.6 1.4-23 6.4-7.7 2-15.3 3.8-17 4-1.6.3-4.5.9-6.4 1.5-1.8.6-3.6 1-4 .9-.3 0-.8.1-1.1.2-.5.2-1 .3-6.2 1.4-4.3.9-7 1.4-10.8 2-1.9.3-5.7 1-8.5 1.5-2.7.5-7.2 1.2-10 1.5-9.5 1.2-11 1.4-14.5 2-5 .8-9.7 1.4-16.5 2.1-3.3.3-7.6.8-9.5 1.1-1.9.2-6.9.7-11 .9-4.1.3-10.2.7-13.5 1-30.9 2.5-99.9 2.5-125 .1-2.7-.3-8.1-.8-12-1.1-3.8-.3-8.3-.7-10-.9-7.1-.9-15.2-1.9-17.5-2.2-1.4-.2-4.7-.6-7.5-.9-2.7-.3-5.7-.7-6.5-1-.8-.3-2.9-.7-4.5-.9-3.3-.4-14.9-2.4-18-3-13-2.6-19.3-4-26.5-5.7-4.7-1.2-9.2-2.2-10-2.4-3.9-.8-17.8-4.7-20-5.5-1.4-.6-3.4-1.2-4.5-1.4-1.1-.2-8.9-2.7-17.2-5.5-8.4-2.8-15.7-5.1-16.3-5.1-.5 0-2 1-3.1 2.1z"/></svg>