<?xml version="1.0" encoding="utf-8"?>
<!-- Generator: Adobe Illustrator 23.0.6, SVG Export Plug-In . SVG Version: 6.00 Build 0)  -->
<svg version="1.1" id="Twitter" xmlns="http://www.w3.org/2000/svg" xmlns:xlink="http://www.w3.org/1999/xlink" x="0px" y="0px"
	 viewBox="0 0 720 720" style="enable-background:new 0 0 720 720;" xml:space="preserve">
<style type="text/css">
	.st0{fill:#673A27;}
</style>
<g>
	<path class="st0" d="M475.85,391.4c1.15-6.54,9.68-12.59,9.68-19.46s-8.54-12.91-9.68-19.46c-1.18-6.73,4.76-15.32,2.48-21.59
		c-2.33-6.39-12.42-9.14-15.78-14.95c-3.39-5.86-0.76-15.97-5.09-21.13c-4.34-5.17-14.76-4.32-19.94-8.67
		c-5.16-4.33-6.12-14.75-11.98-18.14c-5.81-3.36-15.31,0.99-21.7-1.34c-6.28-2.29-10.75-11.74-17.48-12.92
		c-6.54-1.15-13.97,6.2-20.84,6.2c-6.87,0-14.29-7.34-20.84-6.2c-6.73,1.18-11.2,10.64-17.48,12.92
		c-6.39,2.33-15.89-2.02-21.69,1.34c-5.86,3.39-6.82,13.81-11.98,18.14c-5.17,4.34-15.59,3.49-19.94,8.66
		c-4.33,5.16-1.7,15.27-5.09,21.13c-3.36,5.81-13.45,8.56-15.78,14.95c-2.29,6.28,3.66,14.87,2.48,21.59
		c-1.15,6.54-9.68,12.59-9.68,19.46s8.54,12.91,9.68,19.46c1.18,6.73-4.76,15.32-2.48,21.59c2.33,6.39,12.42,9.14,15.78,14.95
		c3.39,5.86,0.76,15.98,5.09,21.13c4.34,5.17,14.76,4.32,19.94,8.66c5.16,4.33,6.12,14.75,11.98,18.14
		c5.81,3.36,15.31-0.99,21.69,1.34c6.28,2.29,10.75,11.74,17.48,12.92c6.54,1.15,13.97-6.2,20.84-6.2c6.87,0,14.29,7.34,20.84,6.2
		c6.73-1.18,11.2-10.64,17.48-12.92c6.39-2.33,15.89,2.02,21.7-1.34c5.86-3.39,6.82-13.81,11.98-18.14
		c5.17-4.34,15.59-3.49,19.93-8.66c4.33-5.16,1.7-15.27,5.09-21.13c3.36-5.81,13.45-8.56,15.78-14.95
		C480.61,406.71,474.67,398.13,475.85,391.4z M365.54,476.4c-57.6,0-104.46-46.86-104.46-104.46c0-57.6,46.86-104.47,104.46-104.47
		c57.6,0,104.46,46.86,104.46,104.47C470,429.54,423.14,476.4,365.54,476.4z"/>
	<path class="st0" d="M365.54,270.47c-55.95,0-101.46,45.52-101.46,101.47c0,55.95,45.52,101.46,101.46,101.46
		c55.95,0,101.46-45.52,101.46-101.46C467,315.99,421.48,270.47,365.54,270.47z M393.54,334.97c-5.23,0-10.87,0-13.55,0
		c-2.68,0-5.39,2.78-5.39,4.84c0,2.06,0,13.81,0,13.81s16.74,0,18.91,0c-0.76,10.59-2.32,20.28-2.32,20.28H374.5v60.03h-24.86V373.9
		h-12.1v-20.2h12.1c0,0,0-13.5,0-16.52c0-3.02-0.62-23.24,25.48-23.24c3.5,0,11.44,0,18.42,0
		C393.54,322.71,393.54,332.22,393.54,334.97z"/>
</g>
</svg>
