<?xml version="1.0" encoding="utf-8"?>
<!-- Generator: Adobe Illustrator 23.0.6, SVG Export Plug-In . SVG Version: 6.00 Build 0)  -->
<svg version="1.1" id="Twitter" xmlns="http://www.w3.org/2000/svg" xmlns:xlink="http://www.w3.org/1999/xlink" x="0px" y="0px"
	 viewBox="0 0 720 720" style="enable-background:new 0 0 720 720;" xml:space="preserve">
<style type="text/css">
	.st0{fill:#673A27;}
</style>
<path class="st0" d="M491.08,372.67c1.15-6.54,9.68-12.59,9.68-19.46s-8.54-12.91-9.68-19.46c-1.18-6.73,4.76-15.32,2.48-21.59
	c-2.33-6.39-12.42-9.14-15.78-14.95c-3.39-5.86-0.76-15.97-5.09-21.13c-4.34-5.17-14.76-4.32-19.94-8.66
	c-5.16-4.33-6.12-14.75-11.98-18.14c-5.81-3.36-15.31,0.99-21.7-1.34c-6.28-2.29-10.75-11.74-17.48-12.92
	c-6.54-1.15-13.97,6.2-20.84,6.2c-6.87,0-14.29-7.34-20.84-6.2c-6.73,1.18-11.2,10.64-17.48,12.92c-6.39,2.33-15.89-2.02-21.69,1.34
	c-5.86,3.39-6.82,13.81-11.98,18.14c-5.17,4.34-15.59,3.49-19.94,8.66c-4.33,5.16-1.7,15.27-5.09,21.13
	c-3.36,5.81-13.45,8.56-15.78,14.95c-2.29,6.28,3.66,14.87,2.48,21.59c-1.15,6.54-9.68,12.59-9.68,19.46s8.54,12.91,9.68,19.46
	c1.18,6.73-4.76,15.32-2.48,21.59c2.33,6.39,12.42,9.14,15.78,14.95c3.39,5.86,0.76,15.98,5.09,21.13
	c4.34,5.17,14.76,4.32,19.94,8.66c5.16,4.33,6.12,14.75,11.98,18.14c5.81,3.36,15.31-0.99,21.69,1.34
	c6.28,2.29,10.75,11.74,17.48,12.92c6.54,1.15,13.97-6.2,20.84-6.2c6.87,0,14.29,7.34,20.84,6.2c6.73-1.18,11.2-10.64,17.48-12.92
	c6.39-2.33,15.89,2.02,21.7-1.34c5.86-3.39,6.82-13.81,11.98-18.14c5.17-4.34,15.59-3.49,19.93-8.66c4.33-5.16,1.7-15.27,5.09-21.13
	c3.36-5.81,13.45-8.56,15.78-14.95C495.84,387.99,489.9,379.4,491.08,372.67z M380.76,457.68c-57.6,0-104.46-46.86-104.46-104.46
	c0-57.6,46.86-104.47,104.46-104.47c57.6,0,104.46,46.86,104.46,104.47C485.23,410.81,438.37,457.68,380.76,457.68z"/>
<g>
	<path class="st0" d="M359.08,370.64c-1.21,0-8.46,0.27-14.09,2.14c-2.95,1.08-11.54,4.29-11.54,13.82
		c0,9.53,9.25,16.37,23.62,16.37c12.88,0,19.72-6.17,19.72-14.49c0-6.84-4.42-10.46-14.62-17.71
		C361.08,370.64,360.42,370.64,359.08,370.64z"/>
	<path class="st0" d="M352.5,310.79c-3.49,0-7.25,1.74-9.39,4.43c-2.28,2.82-2.95,6.44-2.95,9.93c0,8.98,5.23,23.89,16.78,23.89
		c3.35,0,6.97-1.61,9.13-3.76c3.09-3.09,3.35-7.38,3.35-9.8C369.41,325.82,363.64,310.79,352.5,310.79z"/>
	<path class="st0" d="M380.76,251.75c-55.95,0-101.46,45.52-101.46,101.47c0,55.95,45.52,101.46,101.46,101.46
		c55.95,0,101.46-45.52,101.46-101.46C482.23,297.26,436.71,251.75,380.76,251.75z M381.21,329.31c0,9.93-5.63,14.63-11.26,19.05
		c-1.75,1.75-3.76,3.62-3.76,6.58c0,2.95,2.01,4.56,3.49,5.77l4.83,3.76c5.91,4.96,11.27,9.53,11.27,18.79
		c0,12.61-12.21,25.36-35.29,25.36c-19.46,0-28.84-9.26-28.84-19.19c0-4.83,2.41-11.67,10.33-16.37c8.31-5.1,19.59-5.77,25.62-6.17
		c-1.88-2.41-4.02-4.97-4.02-9.12c0-2.28,0.67-3.62,1.34-5.23c-1.48,0.13-2.95,0.27-4.3,0.27c-14.22,0-22.27-10.6-22.27-21.06
		c0-6.17,2.82-13.02,8.59-17.98c7.65-6.3,16.78-7.38,24.02-7.38h27.64l-8.58,4.83h-8.32C374.77,313.74,381.21,319.11,381.21,329.31z
		 M439.88,331.3H419.5v20.38h-5.1V331.3h-20.38v-5.1h20.38v-20.38h5.1v20.38h20.38V331.3z"/>
</g>
</svg>
