<?xml version="1.0" encoding="utf-8"?>
<!-- Generator: Adobe Illustrator 23.0.6, SVG Export Plug-In . SVG Version: 6.00 Build 0)  -->
<svg version="1.1" id="Twitter" xmlns="http://www.w3.org/2000/svg" xmlns:xlink="http://www.w3.org/1999/xlink" x="0px" y="0px"
	 viewBox="0 0 720 720" style="enable-background:new 0 0 720 720;" xml:space="preserve">
<style type="text/css">
	.st0{fill:#673A27;}
</style>
<path class="st0" d="M480.32,362.4c1.15-6.54,9.68-12.59,9.68-19.46c0-6.87-8.54-12.91-9.68-19.46c-1.18-6.73,4.76-15.32,2.48-21.59
	c-2.33-6.39-12.42-9.14-15.78-14.95c-3.39-5.86-0.76-15.97-5.09-21.13c-4.34-5.17-14.76-4.32-19.94-8.67
	c-5.16-4.33-6.12-14.75-11.98-18.14c-5.81-3.36-15.31,0.99-21.7-1.34c-6.28-2.29-10.75-11.74-17.48-12.92
	c-6.54-1.15-13.97,6.2-20.84,6.2c-6.87,0-14.29-7.34-20.84-6.2c-6.73,1.18-11.2,10.64-17.48,12.92c-6.39,2.33-15.89-2.02-21.69,1.34
	c-5.86,3.39-6.82,13.81-11.98,18.14c-5.17,4.34-15.59,3.49-19.94,8.66c-4.33,5.16-1.7,15.27-5.09,21.13
	c-3.36,5.81-13.45,8.56-15.78,14.95c-2.29,6.28,3.66,14.87,2.48,21.59c-1.15,6.54-9.68,12.59-9.68,19.46
	c0,6.87,8.54,12.91,9.68,19.46c1.18,6.73-4.76,15.32-2.48,21.59c2.33,6.39,12.42,9.14,15.78,14.95c3.39,5.86,0.76,15.98,5.09,21.13
	c4.34,5.17,14.76,4.32,19.94,8.66c5.16,4.33,6.12,14.75,11.98,18.14c5.81,3.36,15.31-0.99,21.69,1.34
	c6.28,2.29,10.75,11.74,17.48,12.92c6.54,1.15,13.97-6.2,20.84-6.2c6.87,0,14.29,7.34,20.84,6.2c6.73-1.18,11.2-10.64,17.48-12.92
	c6.39-2.33,15.89,2.02,21.7-1.34c5.86-3.39,6.82-13.81,11.98-18.14c5.17-4.34,15.59-3.49,19.93-8.66c4.33-5.16,1.7-15.27,5.09-21.13
	c3.36-5.81,13.45-8.56,15.78-14.95C485.08,377.71,479.14,369.12,480.32,362.4z M370,447.4c-57.6,0-104.46-46.86-104.46-104.46
	c0-57.6,46.86-104.47,104.46-104.47c57.6,0,104.46,46.86,104.46,104.47C474.46,400.54,427.6,447.4,370,447.4z"/>
<path class="st0" d="M370,241.47c-55.95,0-101.46,45.52-101.46,101.47c0,55.95,45.52,101.46,101.46,101.46
	c55.95,0,101.46-45.52,101.46-101.46C471.46,286.99,425.95,241.47,370,241.47z M380.1,372.09c-8.12,0-15.76-4.39-18.37-9.37
	c0,0-4.37,17.32-5.29,20.67c-3.26,11.82-12.83,23.64-13.58,24.61c-0.52,0.67-1.66,0.46-1.79-0.43c-0.21-1.51-2.65-16.42,0.23-28.58
	c1.44-6.11,9.67-40.98,9.67-40.98s-2.4-4.8-2.4-11.9c0-11.14,6.46-19.46,14.5-19.46c6.84,0,10.14,5.13,10.14,11.29
	c0,6.88-4.38,17.16-6.64,26.68c-1.89,7.98,4,14.49,11.87,14.49c14.25,0,23.84-18.3,23.84-39.98c0-16.48-11.09-28.82-31.29-28.82
	c-22.81,0-37.02,17.01-37.02,36.02c0,6.55,1.94,11.17,4.96,14.75c1.39,1.64,1.58,2.31,1.08,4.19c-0.37,1.39-1.19,4.71-1.54,6.03
	c-0.5,1.91-2.04,2.59-3.76,1.88c-10.5-4.29-15.4-15.8-15.4-28.73c0-21.36,18.02-46.98,53.74-46.98c28.71,0,47.61,20.77,47.61,43.08
	C420.67,350.06,404.27,372.09,380.1,372.09z"/>
</svg>
