<svg xmlns="http://www.w3.org/2000/svg" viewBox="0 0 823.37 1536.07"><path d="M785.2,698.3a470.15,470.15,0,0,0-11.4-56.2c-9-34.2-25.6-126.4,7.2-262.2,11.9-49.4,18.1-100,17.3-150.8C796.8,137.7,774.5,25,673.6,25,503.7,25,561.4,355.6,561.4,355.6s28,174.9-72.6,194.6c0,0-315.1-30.8-366.2,106.7,0,0-28,58.3,0,104.5,0,0-103.9,49.5-97.3,140.2,1.7,23.7,8.5,43.1,17.6,58.7-6.6,65.5-10.6,174.3,26.9,215.1,0,0-28,173.2,62.7,226s285.4,163.3,414,79.2S629,1322.3,629,1322.3s13.8-12.9,27.6-34.3c24.1-37.4,48.1-100.8-1.2-166.9,1.7-1.2,172.6-116.2,129.8-422.8Z" fill="#dba101"/><path d="M88.7,1006.8c-14.4-9-32.5-23.9-45.8-46.5-9.1-15.6-15.9-34.9-17.6-58.7-6.6-90.7,97.3-140.2,97.3-140.2-28-46.2,0-104.5,0-104.5,51.1-137.4,366.2-106.7,366.2-106.7,100.6-19.8,72.6-194.6,72.6-194.6S503.7,25,673.6,25c101,0,123.3,112.7,124.7,204.1A598.86,598.86,0,0,1,781,379.9c-32.9,135.8-16.2,228-7.2,262.2a466.19,466.19,0,0,1,11.4,56.2c43,308.1-129.8,422.7-129.8,422.7,77.5,103.9-26.4,201.2-26.4,201.2s46.2,74.2-82.5,158.3-323.3-26.4-414-79.2-62.7-226-62.7-226c-37.4-40.9-33.5-149.6-26.9-215.1" fill="none" stroke="#231f20" stroke-linecap="round" stroke-linejoin="round" stroke-width="50"/><path d="M226.6,1063.3c310.1,176.5,428.9,57.7,428.9,57.7s84.1-132,13.2-186.4c0,0-29.7-24.7-92.4-8.2s-305.2-85.8-305.2-85.8" fill="none" stroke="#231f20" stroke-linecap="round" stroke-linejoin="round" stroke-width="50"/><path d="M629,1322.2s-94,89.1-382.7-41.2" fill="none" stroke="#231f20" stroke-linecap="round" stroke-linejoin="round" stroke-width="50"/><path d="M603,921.4s72.2-18.2,78.8-89.1c0,0,27.1-87.4-78.8-140.2" fill="none" stroke="#231f20" stroke-linecap="round" stroke-linejoin="round" stroke-width="50"/></svg>