<?xml version="1.0" encoding="utf-8"?>
<!-- Generator: Adobe Illustrator 23.0.6, SVG Export Plug-In . SVG Version: 6.00 Build 0)  -->
<svg version="1.1" id="Twitter" xmlns="http://www.w3.org/2000/svg" xmlns:xlink="http://www.w3.org/1999/xlink" x="0px" y="0px"
	 viewBox="0 0 720 720" style="enable-background:new 0 0 720 720;" xml:space="preserve">
<style type="text/css">
	.st0{fill:#673A27;}
</style>
<path class="st0" d="M470.32,392.54c1.15-6.54,9.68-12.59,9.68-19.46c0-6.87-8.54-12.91-9.68-19.46
	c-1.18-6.73,4.76-15.32,2.48-21.59c-2.33-6.39-12.42-9.14-15.78-14.95c-3.39-5.86-0.76-15.97-5.09-21.13
	c-4.34-5.17-14.76-4.32-19.94-8.66c-5.16-4.33-6.12-14.75-11.98-18.14c-5.81-3.36-15.31,0.99-21.7-1.34
	c-6.28-2.29-10.75-11.74-17.48-12.92c-6.54-1.15-13.97,6.2-20.84,6.2c-6.87,0-14.29-7.34-20.84-6.2
	c-6.73,1.18-11.2,10.64-17.48,12.92c-6.39,2.33-15.89-2.02-21.69,1.34c-5.86,3.39-6.82,13.81-11.98,18.14
	c-5.17,4.34-15.59,3.49-19.94,8.66c-4.33,5.16-1.7,15.27-5.09,21.13c-3.36,5.81-13.45,8.56-15.78,14.95
	c-2.29,6.28,3.66,14.87,2.48,21.59c-1.15,6.54-9.68,12.59-9.68,19.46c0,6.87,8.54,12.91,9.68,19.46c1.18,6.73-4.76,15.32-2.48,21.59
	c2.33,6.39,12.42,9.14,15.78,14.95c3.39,5.86,0.76,15.98,5.09,21.13c4.34,5.17,14.76,4.32,19.94,8.66
	c5.16,4.33,6.12,14.75,11.98,18.14c5.81,3.36,15.31-0.99,21.69,1.34c6.28,2.29,10.75,11.74,17.48,12.92
	c6.54,1.15,13.97-6.2,20.84-6.2c6.87,0,14.29,7.34,20.84,6.2c6.73-1.18,11.2-10.64,17.48-12.92c6.39-2.33,15.89,2.02,21.7-1.34
	c5.86-3.39,6.82-13.81,11.98-18.14c5.17-4.34,15.59-3.49,19.93-8.66c4.33-5.16,1.7-15.27,5.09-21.13
	c3.36-5.81,13.45-8.56,15.78-14.95C475.08,407.86,469.14,399.27,470.32,392.54z M360,477.55c-57.6,0-104.46-46.86-104.46-104.46
	c0-57.6,46.86-104.47,104.46-104.47c57.6,0,104.46,46.86,104.46,104.47C464.46,430.69,417.6,477.55,360,477.55z"/>
<path class="st0" d="M360,271.62c-55.95,0-101.46,45.52-101.46,101.47c0,55.95,45.52,101.46,101.46,101.46
	c55.95,0,101.46-45.52,101.46-101.46C461.46,317.14,415.95,271.62,360,271.62z M404.29,356.02c2.59,51.49-56.35,84.87-98.53,56.3
	c12.23,2.24,24.06-2.95,31.46-8.28c-9.38-2.77-17.46-6.83-19.87-16.56c4.57,0.32,4.54,0.32,9.11,0c-9.3-3.94-16.57-9.93-17.39-22.36
	c3.32,0.55,5.99,1.74,9.11,2.49c-5.31-4.31-12.51-18.58-6.62-29.81c12.44,10.75,24.9,21.47,46.36,23.18
	c-3.21-24.77,25.6-35.94,40.57-20.7c4.66-1.42,8.9-3.24,13.25-4.96c-1.26,5.36-4.91,8.33-8.28,11.59c4.2-0.49,8.11-1.27,10.76-3.31
	C414.46,347.99,406.75,351.57,404.29,356.02z"/>
</svg>
