<svg xmlns="http://www.w3.org/2000/svg" viewBox="0 0 34.58 53.57"><path d="M29.86,9.37c.66-2.52,2.76-6.72.36-8.28C24.85.19,21.62,6,20.78,9.15s.32,9.28-3.26,10c0,0-11.22-1.1-13,3.8a4.34,4.34,0,0,0,0,3.72s-3.7,1.76-3.47,5a4.73,4.73,0,0,0,.63,2.1c-.24,2.33-.38,6.2,1,7.66,0,0-1,6.16,2.23,8s6.66,3.84,14.74,2.83c7.51-.94,7.69-1.18,10.21-4.06,1.8-9.72,3.4-10.49,3.78-16.56S27,21.61,29.86,9.37Z" fill="#dba101" stroke="#231f20" stroke-miterlimit="10" stroke-width="2"/><path d="M16.66,47.35c2-.85,6,4.2-2.34,5.22" fill="#dba101" stroke="#231f20" stroke-miterlimit="10" stroke-width="2"/><path d="M7.48,37.45c11,6.29,15.27,2.06,15.27,2.06s3-4.7.47-6.64c0,0-1-.88-3.29-.29S9.06,29.52,9.06,29.52" fill="none" stroke="#231f20" stroke-linecap="round" stroke-linejoin="round" stroke-width="2"/><path d="M21.46,40.21S24.34,52,8.18,45.2" fill="none" stroke="#231f20" stroke-linecap="round" stroke-linejoin="round" stroke-width="2"/><path d="M20.88,32.4a3.83,3.83,0,0,0,2.81-3.18s1-3.11-2.81-5" fill="none" stroke="#231f20" stroke-linecap="round" stroke-linejoin="round" stroke-width="2"/></svg>