<svg version="1.0" xmlns="http://www.w3.org/2000/svg"
 width="960.000000pt" height="960.000000pt" viewBox="0 0 960.000000 960.000000"
 preserveAspectRatio="xMidYMid meet">
<g transform="translate(0.000000,960.000000) scale(0.100000,-0.100000)"
fill="#000000" stroke="none">
<path d="M3324 8201 c2 -3 -46 -6 -107 -7 -116 -1 -310 -9 -502 -20 -60 -4
-127 -7 -147 -8 -21 -1 -38 -3 -38 -6 0 -3 -28 -5 -63 -6 -55 -1 -133 -6 -277
-19 -25 -3 -74 -7 -110 -10 -36 -3 -78 -7 -95 -9 -36 -4 -150 -18 -185 -21
-14 -2 -52 -6 -85 -10 -33 -4 -71 -9 -85 -10 -31 -3 -106 -14 -140 -20 -14 -2
-45 -7 -70 -10 -25 -3 -70 -10 -100 -15 -30 -5 -71 -12 -90 -15 -19 -3 -48 -8
-65 -12 -16 -3 -39 -7 -50 -9 -11 -2 -29 -5 -40 -7 -11 -3 -40 -8 -65 -13 -25
-4 -47 -8 -50 -9 -3 -1 -18 -5 -35 -9 -16 -4 -48 -12 -70 -17 -22 -5 -51 -12
-65 -15 -14 -3 -35 -7 -48 -10 -13 -2 -42 -11 -65 -18 -41 -14 -96 -29 -109
-30 -3 -1 -10 -4 -14 -8 -4 -5 -14 -8 -23 -8 -27 0 -181 -67 -250 -109 -131
-78 -224 -196 -246 -309 -2 -9 -4 -17 -5 -17 -1 0 -4 -28 -7 -62 -9 -128 61
-187 168 -142 28 11 49 46 55 92 2 15 6 40 8 57 5 36 28 90 38 90 5 0 8 5 8
10 0 34 140 118 278 166 116 42 397 113 507 130 11 2 31 6 45 9 14 3 36 8 50
10 14 2 39 7 55 10 17 4 46 8 65 10 19 2 35 4 35 5 0 3 42 10 90 15 28 3 57 7
65 10 8 2 38 7 65 10 28 3 59 7 70 9 27 5 109 16 170 22 28 3 66 7 85 10 19 2
60 6 90 9 30 3 73 7 95 10 99 10 204 18 252 19 29 1 53 3 53 6 0 3 19 5 43 6
23 0 89 4 147 9 58 4 130 9 160 10 30 2 105 6 165 10 61 4 116 6 123 6 26 -2
39 -2 102 3 302 22 1411 22 1910 1 191 -9 327 -15 395 -20 39 -3 106 -7 150
-10 44 -3 107 -7 140 -10 33 -3 94 -7 135 -10 41 -2 93 -7 115 -9 22 -3 72 -8
110 -12 92 -9 111 -10 170 -17 28 -4 75 -9 105 -12 30 -4 66 -8 80 -10 14 -2
50 -7 80 -10 30 -3 62 -7 70 -10 8 -2 38 -6 65 -10 43 -5 138 -20 253 -39 17
-3 47 -8 65 -12 17 -3 77 -14 132 -26 55 -11 107 -22 115 -23 8 -2 15 -4 15
-5 0 -2 16 -5 58 -13 15 -3 69 -18 120 -33 51 -14 99 -28 107 -29 8 -2 16 -4
18 -5 1 -2 7 -4 12 -5 6 -1 12 -4 15 -5 3 -1 8 -3 13 -5 63 -18 208 -95 246
-132 47 -46 66 -82 73 -141 9 -77 26 -115 61 -139 54 -36 134 -15 160 43 32
70 -2 233 -67 324 -75 103 -230 206 -382 254 -30 10 -61 20 -69 23 -8 3 -19 7
-25 9 -5 1 -41 12 -80 23 -38 12 -79 23 -90 26 -11 2 -30 6 -43 9 -13 3 -31 7
-40 10 -9 3 -32 8 -51 11 -19 3 -37 7 -40 9 -3 2 -22 7 -41 10 -19 3 -80 14
-135 25 -55 11 -134 25 -175 31 -81 13 -103 16 -137 24 -12 2 -48 7 -80 11
-32 3 -67 8 -78 10 -11 3 -45 7 -75 10 -30 3 -66 7 -80 9 -32 6 -120 16 -190
22 -30 3 -73 7 -95 10 -22 2 -67 6 -100 9 -33 2 -80 7 -105 10 -50 5 -175 15
-260 20 -30 2 -89 6 -130 9 -157 11 -385 23 -620 33 -191 8 -1590 12 -1586 4z"/>
<path d="M3495 7742 c-2 -2 -77 -6 -167 -8 -326 -8 -653 -24 -978 -50 -41 -3
-95 -7 -120 -9 -85 -6 -195 -16 -230 -20 -19 -2 -64 -7 -100 -11 -36 -3 -72
-7 -80 -9 -8 -2 -44 -6 -80 -9 -36 -4 -76 -9 -90 -11 -14 -2 -45 -7 -70 -10
-25 -3 -56 -8 -70 -10 -14 -2 -45 -7 -70 -10 -25 -4 -63 -10 -85 -15 -22 -5
-60 -11 -85 -15 -25 -3 -73 -13 -108 -20 -34 -8 -75 -17 -91 -20 -72 -12 -273
-76 -335 -106 -38 -18 -84 -48 -102 -66 -59 -58 -31 -122 75 -176 44 -23 191
-78 191 -72 0 2 16 -3 35 -11 19 -8 35 -12 35 -9 0 3 17 -1 38 -9 20 -8 84
-23 142 -35 170 -33 160 -32 295 -52 39 -6 81 -12 95 -15 14 -2 45 -7 70 -10
25 -3 54 -7 65 -9 11 -1 47 -5 80 -9 33 -4 74 -9 90 -11 17 -2 62 -7 100 -10
39 -4 84 -9 100 -11 17 -2 66 -6 110 -9 44 -4 100 -9 125 -11 25 -3 72 -7 105
-9 102 -6 237 -15 310 -20 64 -4 217 -11 435 -20 511 -21 1383 -21 1890 0 138
6 348 16 410 20 36 2 108 7 160 10 175 11 328 23 399 30 29 3 77 8 105 10 55
5 126 12 191 20 22 2 63 7 90 10 28 2 66 7 85 10 19 3 53 8 75 11 22 3 51 7
65 9 14 3 57 9 95 15 39 5 79 11 90 14 11 2 40 7 65 11 115 19 306 64 410 97
164 52 253 107 270 166 8 29 5 37 -22 68 -31 35 -131 88 -222 119 -54 17 -222
62 -264 70 -14 2 -48 9 -76 14 -78 16 -108 22 -141 27 -16 3 -52 9 -80 14 -27
5 -70 12 -95 15 -25 2 -55 7 -67 9 -12 3 -48 7 -80 11 -32 3 -71 8 -88 10 -91
12 -135 17 -180 21 -27 2 -70 6 -95 9 -61 8 -122 13 -200 19 -36 3 -94 8 -130
11 -98 8 -194 14 -300 20 -239 13 -281 15 -380 20 -362 15 -1603 28 -1615 17z"/>
<path d="M95 7006 c-37 -16 -82 -68 -91 -102 -6 -24 2 -482 10 -589 2 -27 7
-93 11 -145 3 -52 8 -111 10 -130 2 -19 7 -62 10 -95 3 -33 8 -76 10 -95 3
-19 7 -57 10 -85 6 -54 11 -89 19 -145 3 -19 12 -84 21 -145 9 -60 20 -132 25
-160 5 -27 12 -66 15 -85 5 -34 32 -163 41 -205 3 -11 6 -29 8 -40 6 -40 19
-70 39 -92 17 -20 100 -58 147 -68 8 -2 42 -13 75 -25 33 -12 69 -23 80 -26
11 -2 30 -6 42 -8 36 -8 53 22 42 74 -15 72 -31 157 -34 175 -2 17 -16 108
-22 140 -31 176 -40 558 -15 603 21 36 53 25 68 -23 9 -32 62 -251 70 -290 1
-5 6 -28 12 -50 6 -22 13 -51 16 -65 17 -100 99 -379 134 -462 75 -173 104
-207 187 -222 79 -14 99 -18 163 -31 85 -18 109 -6 104 50 0 6 -8 46 -16 89
-9 44 -18 91 -20 105 -3 14 -7 45 -11 69 -20 124 -27 216 -27 344 -1 137 8
259 22 307 5 17 8 34 8 38 -2 17 31 27 54 16 17 -8 29 -29 45 -79 26 -80 58
-204 67 -254 3 -19 8 -46 11 -60 10 -46 14 -75 20 -117 3 -24 7 -62 11 -85 12
-96 19 -372 9 -388 -2 -4 0 -23 6 -42 11 -40 36 -54 111 -63 52 -5 107 -13
153 -20 17 -3 52 -7 79 -11 26 -3 65 -7 85 -10 84 -10 94 -10 116 8 26 20 26
28 1 158 -8 41 -18 93 -21 115 -3 22 -7 51 -10 65 -2 14 -6 52 -10 85 -3 33
-8 71 -10 85 -5 32 -16 201 -21 305 -10 224 -3 765 11 945 9 107 6 247 -6 275
-7 17 -13 33 -13 36 -1 3 -13 19 -28 37 -28 34 -85 70 -121 76 -12 3 -22 5
-22 6 0 1 -22 3 -50 6 -27 2 -68 7 -90 10 -22 3 -53 7 -70 9 -46 5 -127 15
-160 21 -74 11 -140 11 -158 1 -48 -27 -78 -74 -93 -142 -1 -5 -18 -59 -38
-120 -20 -60 -55 -172 -78 -249 -33 -108 -48 -141 -64 -148 -39 -18 -59 4 -73
79 -7 37 -17 84 -21 103 -18 71 -39 166 -44 195 -3 17 -8 41 -12 55 -7 29 -14
59 -42 188 -33 143 -60 170 -199 197 -37 6 -201 52 -307 85 -109 33 -136 36
-181 16z"/>
<path d="M7595 6912 c-43 -11 -143 -34 -208 -47 -10 -2 -26 -6 -35 -9 -9 -3
-34 -7 -56 -11 -21 -3 -41 -7 -45 -10 -4 -2 -21 -6 -37 -9 -66 -12 -90 -19
-101 -28 -7 -6 -13 -8 -13 -4 0 11 -81 -34 -135 -74 -94 -70 -145 -142 -198
-276 -35 -88 -83 -245 -93 -301 -3 -15 -11 -55 -18 -88 -8 -33 -14 -67 -14
-75 -1 -8 -4 -31 -7 -50 -30 -187 -26 -553 8 -715 4 -16 9 -46 12 -65 15 -109
48 -222 81 -277 41 -71 116 -141 187 -173 120 -56 192 -57 397 -5 224 57 503
145 543 171 59 39 68 70 132 429 14 77 27 156 30 175 16 117 16 139 5 159 -12
23 -26 24 -100 6 -14 -3 -41 -8 -60 -11 -150 -25 -265 -54 -282 -72 -17 -17
-26 -45 -54 -171 -10 -48 -54 -130 -86 -164 -43 -44 -72 -53 -103 -33 -28 18
-90 140 -80 156 3 5 2 10 -3 10 -5 0 -12 21 -15 48 -4 26 -9 58 -12 72 -26
123 -26 370 1 520 9 48 12 65 14 65 1 0 3 11 6 25 9 51 57 192 70 205 8 7 14
18 14 24 0 19 89 72 123 73 45 2 87 -21 109 -59 27 -45 30 -65 34 -181 4 -136
9 -149 55 -144 53 6 107 13 119 17 8 2 29 7 45 10 17 2 74 16 129 29 125 30
142 46 151 136 28 307 23 384 -32 497 -81 168 -299 271 -478 225z"/>
<path d="M8364 6747 c-37 -16 -46 -45 -49 -171 -2 -66 -7 -179 -11 -251 -12
-208 -12 -208 81 -182 6 2 19 8 31 15 67 36 195 54 285 39 58 -10 189 -64 189
-78 0 -4 8 -10 19 -14 31 -10 101 -87 131 -145 32 -64 65 -172 76 -250 10 -69
10 -347 1 -421 -37 -283 -142 -493 -357 -710 -202 -204 -370 -303 -600 -354
-104 -23 -109 -24 -160 -31 -67 -9 -105 -53 -126 -149 -1 -5 -20 -60 -43 -121
-23 -61 -41 -116 -41 -122 0 -6 -3 -12 -7 -14 -11 -4 -45 -97 -50 -133 -5 -43
9 -59 54 -59 42 0 120 11 173 24 40 10 86 20 115 24 11 2 20 4 20 5 0 3 17 7
58 16 27 5 106 30 137 42 8 3 20 7 25 8 58 15 372 161 395 185 3 3 33 23 67
45 35 22 63 43 63 48 0 4 7 7 15 7 7 0 18 6 22 13 4 8 15 18 24 23 63 36 256
226 339 334 69 91 140 200 166 255 10 22 23 43 28 47 6 4 7 8 3 8 -5 0 -2 12
7 28 65 122 123 331 144 522 14 127 4 602 -13 630 -2 4 -6 28 -10 54 -3 27 -7
51 -9 55 -2 3 -7 22 -10 42 -8 54 -54 196 -87 268 -55 121 -155 248 -241 307
-24 16 -45 31 -48 34 -10 12 -124 63 -159 72 -20 5 -54 14 -76 19 -60 16 -75
18 -135 24 -181 18 -409 25 -436 12z"/>
<path d="M6478 6714 c-3 -2 -46 -7 -163 -19 -16 -2 -61 -6 -100 -10 -38 -3
-86 -8 -105 -10 -19 -2 -71 -7 -115 -11 -44 -3 -96 -8 -115 -9 -19 -2 -47 -4
-61 -4 -14 -1 -36 -11 -48 -22 -27 -25 -26 -35 13 -199 8 -36 18 -81 21 -100
3 -19 7 -46 10 -60 8 -48 17 -105 20 -140 2 -19 6 -57 9 -85 17 -130 29 -644
17 -669 -2 -5 -5 -32 -7 -60 -7 -122 -17 -217 -30 -296 -2 -14 -7 -41 -10 -60
-3 -19 -7 -46 -10 -60 -2 -14 -7 -41 -10 -60 -3 -19 -8 -44 -12 -55 -3 -11 -6
-22 -7 -25 -11 -52 -21 -89 -42 -159 -29 -98 -25 -125 18 -140 17 -6 34 -9 38
-7 3 2 44 7 91 11 87 7 102 9 205 20 33 4 78 8 100 10 22 2 58 6 80 9 22 3 63
8 91 11 99 11 155 24 172 41 15 15 19 57 8 91 -12 38 -20 79 -40 198 -8 50
-14 97 -14 105 0 8 -3 24 -5 35 -21 88 -29 617 -13 830 5 61 10 128 11 150 2
22 4 40 5 40 1 0 3 16 5 35 2 19 6 58 10 85 3 28 8 64 10 80 2 17 6 44 9 60 4
17 9 45 12 64 3 18 8 43 10 55 2 11 7 37 10 56 3 19 9 49 14 65 10 33 18 71
27 125 7 49 -21 83 -70 85 -20 1 -38 1 -39 -1z"/>
<path d="M2702 6614 c-32 -11 -128 -101 -189 -178 -24 -29 -123 -184 -123
-192 0 -4 -7 -15 -16 -25 -8 -9 -17 -23 -18 -31 -2 -7 -14 -38 -28 -68 -14
-30 -31 -73 -38 -95 -7 -22 -16 -44 -20 -50 -6 -9 -38 -121 -44 -156 -1 -8 -5
-23 -9 -34 -3 -11 -8 -36 -11 -55 -2 -19 -7 -46 -10 -60 -34 -137 -39 -513
-11 -710 21 -147 79 -379 112 -448 27 -57 35 -59 370 -77 127 -7 132 -6 143
14 10 19 7 81 -5 101 -2 3 -7 20 -9 36 -3 16 -8 40 -12 54 -6 26 -10 45 -18
95 -34 196 -35 208 -19 233 14 23 18 24 101 18 246 -17 252 -18 267 -39 14
-20 11 -199 -9 -444 -3 -43 -1 -55 18 -72 20 -19 37 -20 292 -25 326 -6 320
-8 311 88 -4 33 -8 70 -10 81 -3 11 -8 56 -12 100 -31 335 -39 559 -40 1065 0
387 4 524 20 734 5 65 -15 116 -45 116 -9 0 -20 3 -23 6 -3 4 -98 8 -209 9
-178 3 -452 11 -616 19 -29 1 -69 -3 -90 -10z m373 -468 c17 -25 23 -105 40
-495 l5 -113 -35 -35 -36 -36 -94 7 c-115 8 -132 12 -159 29 -42 28 -51 61
-38 135 10 62 51 200 71 247 5 11 21 47 36 80 39 90 106 196 128 204 30 11 67
1 82 -23z"/>
<path d="M5107 6614 c-2 -3 -154 -6 -337 -9 -294 -4 -342 -7 -407 -25 -138
-38 -262 -138 -325 -265 -44 -85 -100 -254 -113 -340 -2 -11 -8 -44 -14 -72
-40 -201 -44 -618 -7 -813 5 -28 16 -95 20 -125 2 -11 6 -33 10 -50 3 -16 8
-40 10 -52 9 -45 48 -180 69 -237 28 -74 98 -145 186 -189 63 -31 67 -31 200
-31 200 1 697 14 766 20 101 8 211 73 280 165 15 20 55 118 61 149 1 8 14 58
28 110 25 96 35 137 41 177 2 12 6 34 9 50 3 15 8 43 11 61 3 17 7 44 9 60 13
79 19 182 20 312 0 214 -4 248 -31 280 l-23 27 -147 -3 c-82 -2 -259 -6 -395
-8 -146 -3 -255 -9 -266 -15 -19 -10 -42 -66 -72 -176 -15 -56 -24 -163 -24
-284 1 -95 3 -106 23 -122 22 -18 63 -18 69 1 2 5 8 10 14 10 5 0 35 20 66 43
31 24 68 50 82 57 14 7 28 18 32 23 11 18 69 9 95 -15 28 -26 28 -41 -2 -188
-2 -14 -7 -41 -10 -60 -14 -83 -17 -95 -27 -108 -32 -38 -107 -51 -337 -56
-128 -2 -139 7 -166 152 -2 13 -7 31 -9 40 -16 48 -30 204 -29 322 0 94 3 128
18 220 10 57 32 144 44 169 5 9 25 51 46 93 21 42 50 88 65 103 31 30 -31 26
828 49 81 2 97 18 77 77 -8 22 -14 42 -14 44 1 8 -60 206 -71 230 -5 11 -19
48 -33 83 -13 35 -34 75 -46 90 -21 27 -24 27 -146 28 -68 1 -126 0 -128 -2z"/>
<path d="M7685 4571 c-27 -9 -53 -17 -58 -18 -4 -1 -33 -9 -65 -18 -31 -10
-64 -18 -72 -20 -8 -2 -51 -13 -96 -24 -45 -12 -91 -24 -103 -26 -11 -3 -29
-7 -38 -9 -24 -6 -212 -46 -243 -52 -14 -3 -61 -11 -105 -19 -44 -8 -93 -17
-110 -20 -46 -8 -86 -14 -125 -19 -19 -3 -53 -7 -75 -11 -70 -10 -109 -16
-145 -21 -19 -2 -48 -6 -65 -8 -16 -3 -57 -7 -90 -11 -61 -7 -81 -10 -125 -19
-14 -3 -38 -9 -55 -12 -44 -9 -147 -57 -202 -95 -106 -71 -213 -201 -259 -314
-35 -86 -49 -145 -118 -510 -12 -66 -17 -88 -21 -112 -3 -16 -7 -37 -9 -48 -6
-29 -67 -335 -72 -365 -3 -14 -10 -45 -15 -70 -6 -25 -12 -60 -15 -79 -2 -18
-7 -37 -10 -42 -6 -11 -11 -37 -18 -99 -14 -125 59 -256 178 -318 44 -23 64
-27 136 -27 47 0 103 5 125 12 22 7 102 28 177 48 150 39 381 110 458 142 8 3
20 7 25 9 53 14 252 103 315 140 167 99 262 200 389 411 141 235 291 543 291
597 0 81 -47 135 -130 151 -13 2 -88 -7 -169 -21 -80 -14 -159 -27 -176 -30
-16 -2 -41 -6 -55 -9 -14 -2 -38 -6 -55 -9 -16 -2 -41 -7 -55 -10 -14 -3 -41
-8 -60 -11 -19 -2 -46 -7 -60 -10 -13 -2 -42 -7 -65 -10 -22 -3 -47 -8 -55
-10 -8 -2 -31 -6 -51 -9 -50 -8 -90 -24 -115 -47 -45 -42 -118 -230 -130 -335
-6 -47 9 -60 52 -44 34 13 138 63 144 70 8 9 89 60 94 60 3 0 27 14 53 30 60
38 116 54 142 41 42 -23 14 -104 -91 -264 -87 -132 -119 -159 -220 -186 -46
-13 -92 -26 -103 -31 -11 -4 -73 -18 -138 -30 -158 -31 -151 -40 -150 172 1
149 7 229 18 248 2 4 7 21 10 39 23 130 212 443 294 485 28 15 41 18 126 32
44 7 67 11 75 14 3 1 8 2 13 1 4 -1 40 5 80 13 66 14 109 21 162 30 11 2 34 6
50 9 17 4 46 9 65 12 19 3 58 10 85 15 28 6 61 13 75 15 14 3 39 7 55 10 17 3
53 10 80 15 28 5 63 12 79 14 16 3 52 10 80 16 28 6 62 12 76 15 14 3 39 7 55
10 106 21 140 71 210 315 7 25 22 78 34 117 26 88 26 105 4 131 -26 29 -61 33
-118 13z"/>
<path d="M431 4534 c-41 -17 -58 -35 -77 -79 -16 -39 -13 -90 8 -128 6 -12 11
-23 10 -24 -1 -2 -1 -5 -1 -8 1 -3 2 -8 3 -12 7 -29 38 -132 45 -148 5 -11 19
-49 31 -85 37 -108 120 -326 155 -405 7 -16 32 -75 56 -130 88 -202 264 -532
367 -690 101 -154 318 -335 402 -335 26 0 25 16 -1 99 -20 60 -23 71 -28 93
-1 4 -8 26 -16 48 -8 22 -14 42 -15 45 0 3 0 6 -1 8 -2 8 -9 36 -14 62 -3 17
-12 55 -20 85 -7 30 -16 72 -19 93 -3 20 -8 52 -11 70 -28 175 -36 367 -15
367 26 -1 69 -75 104 -180 16 -47 33 -96 39 -110 6 -14 11 -27 12 -30 1 -3 5
-14 10 -25 4 -11 19 -49 32 -85 105 -271 287 -608 370 -688 52 -49 204 -101
256 -88 47 11 54 38 60 206 4 85 8 166 11 179 3 13 8 49 12 80 3 31 8 65 10
76 2 11 7 34 10 50 3 17 10 50 15 75 6 25 13 56 15 70 3 14 7 33 10 42 3 10 8
30 10 45 11 60 96 297 121 336 52 84 77 73 90 -40 14 -120 3 -425 -21 -573 -3
-19 -8 -51 -10 -70 -9 -54 -17 -98 -40 -215 -3 -11 -9 -40 -15 -65 -7 -25 -14
-56 -17 -70 -3 -14 -12 -48 -20 -77 -16 -56 -11 -100 15 -120 17 -13 95 -39
146 -48 17 -2 41 -7 55 -10 82 -17 250 -45 257 -44 4 1 10 0 13 -1 11 -4 47
-10 90 -14 25 -3 45 -5 45 -6 0 -1 18 -3 40 -6 22 -2 52 -6 66 -8 63 -9 111
40 95 97 -19 66 -59 226 -63 252 -3 17 -9 37 -14 46 -4 9 -6 18 -4 21 3 2 -4
50 -15 106 -11 56 -19 106 -19 110 1 4 0 9 -1 12 -3 9 -8 43 -14 100 -3 30 -8
71 -11 90 -3 19 -7 69 -10 110 -3 41 -7 95 -10 120 -15 139 -21 552 -12 843 3
102 1 124 -17 162 -28 61 -79 82 -212 90 -56 4 -126 8 -155 10 -30 2 -90 7
-134 10 -44 3 -107 8 -140 11 -273 26 -301 27 -334 9 -17 -8 -38 -27 -47 -41
-17 -26 -21 -41 -30 -134 -7 -76 -12 -115 -14 -115 0 0 -3 -30 -5 -66 -2 -37
-6 -84 -9 -105 -7 -57 -16 -132 -21 -189 -6 -64 -32 -99 -73 -100 -41 -1 -61
28 -88 124 -12 42 -34 114 -48 161 -15 47 -29 96 -32 110 -3 14 -18 70 -35
125 -53 176 -57 189 -63 219 -18 75 -64 104 -196 121 -39 5 -181 31 -220 40
-14 3 -41 8 -60 11 -19 3 -51 9 -70 14 -19 5 -46 11 -60 14 -32 6 -42 9 -172
40 -58 14 -135 35 -170 45 -88 27 -130 31 -167 15z"/>
<path d="M5217 4204 c-4 -4 -288 -14 -511 -18 -162 -3 -170 -4 -188 -26 -22
-28 -22 -37 1 -108 31 -96 68 -259 86 -377 3 -16 7 -40 9 -53 3 -13 8 -50 11
-83 4 -33 9 -70 12 -82 2 -12 6 -105 8 -207 3 -167 1 -194 -20 -275 -53 -207
-144 -332 -265 -365 -49 -14 -50 -14 -98 -6 -104 16 -231 176 -258 326 -3 14
-8 34 -11 45 -12 38 -14 61 -16 190 -1 114 2 165 17 265 2 14 7 50 11 80 4 30
9 58 11 62 3 4 7 26 10 50 9 64 81 342 109 419 28 79 28 107 0 125 -25 16
-773 27 -818 11 -15 -5 -32 -19 -39 -30 -27 -52 -30 -1028 -4 -1227 8 -53 37
-206 43 -220 3 -8 8 -24 9 -35 4 -21 39 -125 54 -160 4 -11 14 -35 22 -52 7
-18 16 -33 20 -33 5 0 7 -4 6 -8 -2 -5 19 -43 45 -85 86 -137 220 -251 349
-299 59 -21 77 -23 273 -22 343 1 463 8 536 34 55 20 134 62 178 95 23 17 145
138 168 167 31 38 119 187 139 234 9 21 21 50 27 64 6 14 11 27 12 30 1 3 5
14 9 25 22 57 34 91 35 98 0 4 7 31 16 60 8 28 17 63 19 77 3 14 5 25 6 25 1
0 3 9 5 20 2 11 7 36 11 55 4 19 8 42 10 50 2 8 6 31 10 50 4 19 7 38 6 41 -1
4 3 33 8 65 16 101 21 155 36 326 8 98 22 360 29 543 2 69 -15 108 -56 125
-28 12 -76 20 -82 14z"/>
<path d="M1649 2179 c-19 -19 -21 -30 -17 -103 11 -195 116 -287 458 -400 198
-65 538 -154 651 -170 20 -3 42 -8 50 -10 13 -5 35 -8 127 -21 20 -3 48 -8 62
-11 14 -4 43 -8 65 -10 48 -5 88 -10 135 -18 19 -3 64 -8 100 -11 62 -4 132
-10 245 -21 91 -9 849 -12 865 -4 9 5 23 4 33 -1 9 -6 17 -6 17 -2 0 4 26 8
58 9 70 1 253 13 282 19 12 2 60 7 107 10 47 3 88 7 92 9 3 2 35 7 71 11 36 4
74 9 85 11 11 2 39 6 63 9 24 3 62 9 85 15 23 5 65 12 92 16 28 3 53 8 56 10
3 2 21 6 40 9 99 17 303 68 439 110 47 14 105 32 130 39 25 8 68 23 96 34 29
12 55 18 58 15 3 -4 6 -1 6 5 0 7 6 12 13 12 33 0 176 89 211 130 46 57 70
123 74 212 4 84 4 87 -22 103 -26 17 -30 16 -159 -25 -72 -24 -132 -42 -132
-41 0 1 -13 -3 -30 -9 -34 -14 -36 -14 -230 -64 -77 -20 -153 -38 -170 -40
-16 -3 -45 -9 -64 -15 -18 -6 -36 -10 -40 -9 -3 0 -8 -1 -11 -2 -5 -2 -10 -3
-62 -14 -43 -9 -70 -14 -108 -20 -19 -3 -57 -10 -85 -15 -27 -5 -72 -12 -100
-15 -95 -12 -110 -14 -145 -20 -50 -8 -97 -14 -165 -21 -33 -3 -76 -8 -95 -11
-19 -2 -69 -7 -110 -9 -41 -3 -102 -7 -135 -10 -309 -25 -999 -25 -1250 -1
-27 3 -81 8 -120 11 -38 3 -83 7 -100 9 -71 9 -152 19 -175 22 -14 2 -47 6
-75 9 -27 3 -57 7 -65 10 -8 3 -29 7 -45 9 -33 4 -149 24 -180 30 -130 26
-193 40 -265 57 -47 12 -92 22 -100 24 -39 8 -178 47 -200 55 -14 6 -34 12
-45 14 -11 2 -89 27 -172 55 -84 28 -157 51 -163 51 -5 0 -20 -10 -31 -21z"/>
</g>
</svg>
